# xmcd
#
# Track frame offsets:
#	150
#	16540
#	32547
#	47995
#	66240
#	77754
#	91100
#	112610
#	124932
#	142515
#	157182
#	176947
#	197470
#	208355
#	224070
#
# Disc length: 3273 seconds
#
# Revision: 1
# Processed by: cddbd v1.5.2PL0 Copyright (c) Steve Scherf et al.
# Submitted via: audiograbber 1.83.01
#
DISCID=cc0cc70f
DTITLE=Various Artist - CB8647
DYEAR=1900
DGENRE=Karaoke
TTITLE0=Emmylou Harris - You Never Can Tell C'est Lavie
TTITLE1=David Allan Coe - She Used To Love Me A Lot
TTITLE2=Charley Pride - Shoulder To Cry On
TTITLE3=John Anderson - Goin' Down Hill
TTITLE4=George Jones - Her Name Is
TTITLE5=Tanya Tucker - Love's The Answer
TTITLE6=Rosanne Cash - Blue Moon With Heartache
TTITLE7=Johnny Rodriguez - Pass Me By
TTITLE8=Steve Wariner - All Roads Lead To You
TTITLE9=Waylon Jennings - You Can Have Her
TTITLE10=Steve Wariner - I Got Dreams
TTITLE11=Ed Bruce - Diane
TTITLE12=Statler Brothers - Who Am I To Say
TTITLE13=Tanya Tucker - Here's Some Love
TTITLE14=Anne Murray - Now And Forever
EXTD=
EXTT0=
EXTT1=
EXTT2=
EXTT3=
EXTT4=
EXTT5=
EXTT6=
EXTT7=
EXTT8=
EXTT9=
EXTT10=
EXTT11=
EXTT12=
EXTT13=
EXTT14=
PLAYORDER=
